<svg width="20" height="20" viewBox="0 0 20 20" fill="none" xmlns="http://www.w3.org/2000/svg">
<path fill-rule="evenodd" clip-rule="evenodd" d="M5.86282 6.98082C4.83571 6.98082 4.45636 7.06939 4.07901 7.26887C3.73947 7.44836 3.473 7.71176 3.29141 8.04738C3.08961 8.42037 3 8.79535 3 9.81061V14.1702C3 15.1855 3.08961 15.5604 3.29141 15.9334C3.473 16.2691 3.73947 16.5325 4.07901 16.712C4.45636 16.9114 4.83571 17 5.86282 17H8.96543C9.99254 17 10.3719 16.9114 10.7492 16.712C11.0888 16.5325 11.3552 16.2691 11.5368 15.9334C11.7386 15.5604 11.8282 15.1855 11.8282 14.1702V9.81061C11.8282 8.79535 11.7386 8.42037 11.5368 8.04738C11.3552 7.71176 11.0888 7.44836 10.7492 7.26887C10.3719 7.06939 9.99254 6.98082 8.96543 6.98082H5.86282Z" stroke="#E5E5EA" stroke-width="1.3"/>
<path d="M8.17188 6.98082V5.82979C8.17188 4.81453 8.26148 4.43955 8.46329 4.06656C8.64488 3.73094 8.91135 3.46754 9.25089 3.28805C9.62823 3.08857 10.0076 3 11.0347 3H14.1373C15.1644 3 15.5438 3.08857 15.9211 3.28805C16.2606 3.46754 16.5271 3.73094 16.7087 4.06656C16.9105 4.43955 17.0001 4.81453 17.0001 5.82979V10.1894C17.0001 11.2047 16.9105 11.5796 16.7087 11.9526C16.5271 12.2882 16.2606 12.5516 15.9211 12.7311C15.5438 12.9306 15.1644 13.0192 14.1373 13.0192H12.2844" stroke="#E5E5EA" stroke-width="1.3"/>
</svg>
