<svg width="18" height="18" viewBox="0 0 18 18" fill="none" xmlns="http://www.w3.org/2000/svg">
<g id="Icon">
<path id="Vector 390" d="M10.2499 1.08337H7.74992C7.28968 1.08337 6.91658 1.45647 6.91658 1.91671V2.26877C6.91658 3.47487 5.67517 4.28163 4.57302 3.79179L3.86326 3.47634C3.46888 3.30106 3.00593 3.45588 2.79634 3.83315L1.46763 6.22483C1.25222 6.61257 1.37829 7.1011 1.75443 7.33619L2.15526 7.58671C3.1997 8.23949 3.1997 9.76059 2.15526 10.4134L1.75443 10.6639C1.37829 10.899 1.25222 11.3875 1.46763 11.7753L2.76188 14.1049C2.98539 14.5072 3.49273 14.6522 3.89505 14.4287L4.44051 14.1256C5.5514 13.5085 6.91658 14.3118 6.91658 15.5826V16.0834C6.91658 16.5436 7.28968 16.9167 7.74992 16.9167H10.2499C10.7102 16.9167 11.0833 16.5436 11.0833 16.0834V15.5826C11.0833 14.3118 12.4484 13.5085 13.5593 14.1256L14.1048 14.4287C14.5071 14.6522 15.0144 14.5072 15.238 14.1049L16.5322 11.7753C16.7476 11.3875 16.6215 10.899 16.2454 10.6639L15.8446 10.4134C14.8001 9.76059 14.8001 8.23949 15.8446 7.58671L16.2454 7.33619C16.6215 7.1011 16.7476 6.61257 16.5322 6.22483L15.2035 3.83315C14.9939 3.45588 14.531 3.30106 14.1366 3.47634L13.4268 3.79179C12.3247 4.28163 11.0833 3.47487 11.0833 2.26877V1.91671C11.0833 1.45647 10.7102 1.08337 10.2499 1.08337Z" stroke="#E5E5EA" stroke-width="1.3" stroke-linecap="round" stroke-linejoin="round"/>
<circle id="Ellipse 3566" cx="9" cy="9" r="2.5" stroke="#E5E5EA" stroke-width="1.3"/>
</g>
</svg>
