<?xml version="1.0" encoding="utf-8"?><!-- Uploaded to: SVG Repo, www.svgrepo.com, Generator: SVG Repo Mixer Tools -->
<svg width="800px" height="800px" viewBox="-2 -3 28 32" fill="none" xmlns="http://www.w3.org/2000/svg">
<path fill-rule="evenodd" clip-rule="evenodd" d="M11.2929 2.29289C11.6834 1.90237 12.3166 1.90237 12.7071 2.29289L16.7071 6.29289C17.0976 6.68342 17.0976 7.31658 16.7071 7.70711C16.3166 8.09763 15.6834 8.09763 15.2929 7.70711L13 5.41421V15C13 15.5523 12.5523 16 12 16C11.4477 16 11 15.5523 11 15V5.41421L8.70711 7.70711C8.31658 8.09763 7.68342 8.09763 7.29289 7.70711C6.90237 7.31658 6.90237 6.68342 7.29289 6.29289L11.2929 2.29289ZM5 13C5 11.3431 6.34315 10 8 10H9C9.55228 10 10 10.4477 10 11C10 11.5523 9.55228 12 9 12H8C7.44772 12 7 12.4477 7 13V19C7 19.5523 7.44772 20 8 20H16C16.5523 20 17 19.5523 17 19V13C17 12.4477 16.5523 12 16 12H15C14.4477 12 14 11.5523 14 11C14 10.4477 14.4477 10 15 10H16C17.6569 10 19 11.3431 19 13V19C19 20.6569 17.6569 22 16 22H8C6.34315 22 5 20.6569 5 19V13Z" fill="#1e2125"/>
</svg>