<svg width="24" height="24" viewBox="0 0 24 24" fill="none" xmlns="http://www.w3.org/2000/svg">
    <path d="M9.22777 3H13.3944C14.3975 3 15.3342 3.5013 15.8906 4.3359L18.4962 8.24423C18.8247 8.73703 19 9.31605 19 9.90833V16.7722C19 18.3004 18.8727 18.8672 18.5721 19.4293C18.3086 19.9219 17.9219 20.3086 17.4293 20.5721C16.8672 20.8727 16.3004 21 14.7722 21H9.22777C7.69961 21 7.13281 20.8727 6.57075 20.5721C6.07806 20.3086 5.69139 19.9219 5.4279 19.4293C5.1273 18.8672 5 18.3004 5 16.7722V7.22777C5 5.69961 5.1273 5.13281 5.4279 4.57075C5.69139 4.07806 6.07806 3.69139 6.57075 3.4279C7.13281 3.1273 7.69961 3 9.22777 3Z"
          stroke="currentColor" stroke-width="1.5"/>
    <path d="M14 3.5V7C14 8.10457 14.8954 9 16 9H18" stroke="currentColor" stroke-width="1.5" stroke-linecap="round"
          stroke-linejoin="round"/>
</svg>