<svg width="41" height="40" viewBox="0 0 41 40" fill="none" xmlns="http://www.w3.org/2000/svg">
<path d="M15.8812 5H22.7779C24.4795 5 26.0686 5.85043 27.0125 7.26626L31.3135 13.7179C31.8709 14.5539 32.1683 15.5362 32.1683 16.5409V27.9537C32.1683 30.5007 31.9561 31.4453 31.4551 32.3821C31.016 33.2032 30.3715 33.8477 29.5504 34.2868C28.6136 34.7878 27.6689 35 25.122 35H15.8812C13.3343 35 12.3897 34.7878 11.4529 34.2868C10.6317 33.8477 9.98728 33.2032 9.54812 32.3821C9.04713 31.4453 8.83496 30.5007 8.83496 27.9537V12.0463C8.83496 9.49935 9.04713 8.55469 9.54812 7.61791C9.98728 6.79676 10.6317 6.15232 11.4529 5.71316C12.3897 5.21217 13.3343 5 15.8812 5Z" stroke="currentColor" stroke-width="2"/>
<path d="M23.835 5.83344V11.6072C23.835 13.4811 25.354 15.0001 27.2278 15.0001H30.5016" stroke="currentColor" stroke-width="2" stroke-linecap="round" stroke-linejoin="round"/>
</svg>
