<svg width="107" height="21" viewBox="0 0 107 21" fill="none" xmlns="http://www.w3.org/2000/svg">
<path d="M10.2069 20.7138C15.8441 20.7138 20.4139 16.144 20.4139 10.5069C20.4139 4.86973 15.8441 0.299927 10.2069 0.299927C4.56981 0.299927 0 4.86973 0 10.5069C0 16.144 4.56981 20.7138 10.2069 20.7138Z" fill="#0098EA"/>
<g clip-path="url(#clip0_81_1326)">
<path d="M10.1367 9.13273L10.1367 2.74475" stroke="white" stroke-width="1.82514"/>
<path d="M10.1357 16.2206C9.82256 16.2206 9.53131 16.0601 9.36411 15.7953L5.09912 9.04114H7.25697L10.1357 13.5991L13.0144 9.04114L13.015 9.04156L13.0153 9.04114H15.1734L10.9072 15.7953C10.74 16.0601 10.4488 16.2206 10.1357 16.2206Z" fill="white"/>
</g>
<path d="M27.7965 15.3221H30.0161V7.58134H32.889V5.47274H24.9238V7.58134H27.7965V15.3221Z" fill="black"/>
<path d="M38.1577 15.4886C40.9599 15.4886 43.2488 13.1996 43.2488 10.3974C43.2488 7.59521 40.9599 5.30627 38.1577 5.30627C35.3416 5.30627 33.0665 7.59521 33.0665 10.3974C33.0665 13.1996 35.3416 15.4886 38.1577 15.4886ZM38.1577 13.3522C36.5485 13.3522 35.2861 11.9927 35.2861 10.3974C35.2861 8.80211 36.5485 7.44262 38.1577 7.44262C39.753 7.44262 41.0154 8.80211 41.0154 10.3974C41.0154 11.9927 39.753 13.3522 38.1577 13.3522Z" fill="black"/>
<path d="M53.2166 15.3221V5.47274H50.9971V11.5488L46.2111 5.47274H44.3106V15.3221H46.5163V9.23215L51.3161 15.3221H53.2166Z" fill="black"/>
<path d="M59.6959 15.3203V7.02383H56.8379V5.46997H64.191V7.02383H61.3191V15.3203H59.6959Z" fill="black"/>
<path d="M70.7885 11.8519C70.7885 13.8636 69.2069 15.4591 67.1536 15.4591C65.1003 15.4591 63.5186 13.8636 63.5186 11.8519C63.5186 9.8402 65.1003 8.24472 67.1536 8.24472C69.2069 8.24472 70.7885 9.8402 70.7885 11.8519ZM65.0586 11.8519C65.0586 13.0867 65.9188 14.044 67.1536 14.044C68.3745 14.044 69.2346 13.0867 69.2346 11.8519C69.2346 10.6171 68.3745 9.65985 67.1536 9.65985C65.9188 9.65985 65.0586 10.6171 65.0586 11.8519Z" fill="black"/>
<path d="M72.1153 15.3203V8.38346H73.6414V9.61823C73.905 8.82742 74.6819 8.31409 75.4727 8.31409C75.667 8.31409 75.8612 8.32797 76.0693 8.36959V9.93732C75.8057 9.85408 75.5837 9.81246 75.3063 9.81246C74.4322 9.81246 73.6414 10.5478 73.6414 11.9351V15.3203H72.1153Z" fill="black"/>
<path d="M77.1776 15.3203V8.38346H78.7037V9.61823C78.9673 8.82742 79.7442 8.31409 80.535 8.31409C80.7293 8.31409 80.9235 8.32797 81.1316 8.36959V9.93732C80.868 9.85408 80.646 9.81246 80.3685 9.81246C79.4945 9.81246 78.7037 10.5478 78.7037 11.9351V15.3203H77.1776Z" fill="black"/>
<path d="M88.4612 13.1422C88.0727 14.4463 86.8241 15.4591 85.0621 15.4591C82.9949 15.4591 81.5104 13.933 81.5104 11.8519C81.5104 9.79858 82.9394 8.24472 85.076 8.24472C87.1987 8.24472 88.6832 9.86795 88.5444 12.2265H83.0227C83.0782 13.2809 83.8828 14.1133 85.1176 14.1133C85.8807 14.1133 86.5466 13.8081 86.8657 13.1422H88.4612ZM85.0344 9.52111C84.0771 9.52111 83.2863 10.0761 83.0782 11.1443H86.9073C86.6715 10.0206 85.8807 9.52111 85.0344 9.52111Z" fill="black"/>
<path d="M89.9035 15.3203V8.38346H91.4296V9.32688C91.8458 8.63319 92.6366 8.24472 93.5384 8.24472C95.1478 8.24472 96.1883 9.38237 96.1883 11.1443V15.3203H94.6622V11.3941C94.6622 10.298 94.1073 9.6321 93.2193 9.6321C92.2066 9.6321 91.4296 10.4229 91.4296 11.9074V15.3203H89.9035Z" fill="black"/>
<path d="M102 15.2371C101.695 15.3342 101.334 15.3897 100.862 15.3897C99.5304 15.3897 98.4898 14.6544 98.4898 13.0867V9.74309H97.047V8.38346H98.4898V6.45501H100.016V8.38346H102V9.74309H100.016V12.8369C100.016 13.6971 100.391 14.0162 101.181 14.0162C101.473 14.0162 101.778 13.9607 102 13.8775V15.2371Z" fill="black"/>
<defs>
<clipPath id="clip0_81_1326">
<rect width="10.6466" height="11.8634" fill="white" transform="translate(4.81445 4.56995)"/>
</clipPath>
</defs>
</svg>
