<svg fill="#728A96" height="24" width="24" version="1.1" id="Layer_1" xmlns="http://www.w3.org/2000/svg" xmlns:xlink="http://www.w3.org/1999/xlink" viewBox="0 0 472.615 472.615" xml:space="preserve"><g id="SVGRepo_bgCarrier" stroke-width="0"></g><g id="SVGRepo_tracerCarrier" stroke-linecap="round" stroke-linejoin="round"></g><g id="SVGRepo_iconCarrier"> <g> <g> <ellipse cx="364.8" cy="202.762" rx="107.648" ry="67.84"></ellipse> </g> </g> <g> <g> <path d="M469.087,253.505c-22.842,22.375-60.623,36.782-104.263,36.782c-43.642,0-81.425-14.409-104.266-36.784 c-2.129,5.321-3.382,10.861-3.382,16.6c0,37.465,48.195,67.838,107.646,67.838c59.45,0,107.645-30.373,107.645-67.838 C472.468,264.366,471.214,258.827,469.087,253.505z"></path> </g> </g> <g> <g> <path d="M469.087,320.843c-22.842,22.375-60.623,36.782-104.263,36.782c-43.642,0-81.425-14.409-104.266-36.784 c-2.129,5.321-3.382,10.86-3.382,16.6c0,37.465,48.195,67.838,107.646,67.838c59.45,0,107.645-30.373,107.645-67.838 C472.468,331.704,471.214,326.164,469.087,320.843z"></path> </g> </g> <g> <g> <path d="M469.087,388.181c-22.842,22.375-60.623,36.782-104.263,36.782c-43.642,0-81.425-14.409-104.266-36.784 c-2.129,5.321-3.382,10.86-3.382,16.6c0,37.465,48.195,67.837,107.646,67.837c59.45,0,107.645-30.372,107.645-67.837 C472.468,399.042,471.214,393.502,469.087,388.181z"></path> </g> </g> <g> <g> <ellipse cx="107.796" cy="67.84" rx="107.648" ry="67.84"></ellipse> </g> </g> <g> <g> <path d="M212.057,118.58c-22.842,22.375-60.622,36.782-104.263,36.782c-43.642,0-81.424-14.409-104.266-36.785 c-2.128,5.322-3.381,10.861-3.381,16.601c0,37.465,48.194,67.837,107.646,67.837c59.45,0,107.645-30.372,107.645-67.837 C215.439,129.441,214.185,123.901,212.057,118.58z"></path> </g> </g> <g> <g> <path d="M212.057,185.918c-22.842,22.375-60.622,36.782-104.263,36.782c-43.642,0-81.424-14.41-104.266-36.785 c-2.128,5.322-3.381,10.861-3.381,16.601c0,37.465,48.194,67.837,107.646,67.837c59.45,0,107.645-30.372,107.645-67.837 C215.439,196.778,214.185,191.239,212.057,185.918z"></path> </g> </g> <g> <g> <path d="M212.057,253.256c-22.842,22.375-60.622,36.782-104.263,36.782c-43.642,0-81.424-14.41-104.266-36.785 c-2.128,5.321-3.381,10.861-3.381,16.601c0,37.465,48.194,67.837,107.646,67.837c59.45,0,107.645-30.372,107.645-67.837 C215.439,264.116,214.185,258.577,212.057,253.256z"></path> </g> </g> <g> <g> <path d="M212.057,320.593c-22.842,22.375-60.622,36.782-104.263,36.782c-43.642,0-81.424-14.409-104.266-36.784 c-2.128,5.321-3.381,10.861-3.381,16.601c0,37.464,48.194,67.837,107.646,67.837c59.45,0,107.645-30.373,107.645-67.837 C215.439,331.454,214.185,325.915,212.057,320.593z"></path> </g> </g> <g> <g> <path d="M212.057,387.931c-22.842,22.375-60.622,36.782-104.263,36.782c-43.642,0-81.424-14.409-104.266-36.784 c-2.128,5.321-3.381,10.86-3.381,16.6c0,37.465,48.194,67.838,107.646,67.838c59.45,0,107.645-30.373,107.645-67.838 C215.439,398.792,214.185,393.252,212.057,387.931z"></path> </g> </g> </g></svg>